<svg width="1024" height="1024" viewBox="0 0 1024 1024" xmlns="http://www.w3.org/2000/svg">
  <defs>
    <linearGradient id="bg" x1="0%" y1="0%" x2="100%" y2="100%">
      <stop offset="0%" stop-color="#FF5E7E"/>
      <stop offset="30%" stop-color="#FF8A4C"/>
      <stop offset="62%" stop-color="#A66BFF"/>
      <stop offset="100%" stop-color="#3B6BFF"/>
    </linearGradient>

    <radialGradient id="highlight" cx="25%" cy="20%" r="70%">
      <stop offset="0%" stop-color="#FFFFFF" stop-opacity="0.35"/>
      <stop offset="70%" stop-color="#FFFFFF" stop-opacity="0"/>
    </radialGradient>

    <linearGradient id="zFill" x1="0%" y1="0%" x2="0%" y2="100%">
      <stop offset="0%" stop-color="#FFFFFF"/>
      <stop offset="100%" stop-color="#FFF0DC"/>
    </linearGradient>

    <linearGradient id="ringGrad" x1="0%" y1="0%" x2="100%" y2="100%">
      <stop offset="0%" stop-color="#FFE066" stop-opacity="0.85"/>
      <stop offset="100%" stop-color="#FF6B9D" stop-opacity="0.45"/>
    </linearGradient>

    <filter id="softShadow" x="-20%" y="-20%" width="140%" height="140%">
      <feGaussianBlur in="SourceAlpha" stdDeviation="14"/>
      <feOffset dx="0" dy="10"/>
      <feComponentTransfer>
        <feFuncA type="linear" slope="0.4"/>
      </feComponentTransfer>
      <feMerge>
        <feMergeNode/>
        <feMergeNode in="SourceGraphic"/>
      </feMerge>
    </filter>

    <filter id="orbBlur" x="-50%" y="-50%" width="200%" height="200%">
      <feGaussianBlur stdDeviation="55"/>
    </filter>

    <clipPath id="squircle">
      <rect x="0" y="0" width="1024" height="1024" rx="230" ry="230"/>
    </clipPath>
  </defs>

  <g clip-path="url(#squircle)">
    <!-- Base gradient -->
    <rect width="1024" height="1024" fill="url(#bg)"/>

    <!-- Color depth orbs -->
    <circle cx="880" cy="160" r="190" fill="#FFD93D" opacity="0.55" filter="url(#orbBlur)"/>
    <circle cx="140" cy="880" r="240" fill="#FF4D8F" opacity="0.55" filter="url(#orbBlur)"/>
    <circle cx="920" cy="920" r="180" fill="#3B6BFF" opacity="0.65" filter="url(#orbBlur)"/>
    <circle cx="100" cy="200" r="140" fill="#FF8A4C" opacity="0.45" filter="url(#orbBlur)"/>

    <!-- Top-left highlight -->
    <rect width="1024" height="1024" fill="url(#highlight)"/>

    <!-- Pulse rings -->
    <circle cx="512" cy="512" r="420" fill="none" stroke="url(#ringGrad)" stroke-width="4" opacity="0.55"/>
    <circle cx="512" cy="512" r="370" fill="none" stroke="#FFFFFF" stroke-width="1.5" opacity="0.3" stroke-dasharray="2 10"/>

    <!-- Z letterform -->
    <path d="M 760 412 L 760 296 L 264 296 L 264 412 L 541.54 412 L 301.04 612 L 264 612 L 264 728 L 760 728 L 760 612 L 482.46 612 L 722.96 412 Z"
          fill="url(#zFill)"
          stroke="url(#zFill)"
          stroke-width="40"
          stroke-linejoin="round"
          stroke-linecap="round"
          filter="url(#softShadow)"/>

    <!-- Accent dot -->
    <circle cx="820" cy="240" r="52" fill="none" stroke="#FFE066" stroke-width="2" opacity="0.35"/>
    <circle cx="820" cy="240" r="34" fill="none" stroke="#FFFFFF" stroke-width="2" opacity="0.5"/>
    <circle cx="820" cy="240" r="22" fill="#FFE066"/>
    <circle cx="813" cy="232" r="7" fill="#FFFFFF" opacity="0.7"/>
  </g>
</svg>
